# xmcd CD database file
#
# Track frame offsets:
#	150
#	12450
#	34212
#	50237
#	61762
#	78475
#	90732
#	106975
#	120550
#	132000
#
# Disc length: 1956 seconds
#
# Revision: 3
# Processed by: cddbd v1.5.2PL0 Copyright (c) Steve Scherf et al.
# Submitted via: CDex 1.70beta2
#
DISCID=8007a20a
DTITLE=Hal Ketchum - Threadbare Alibis
DYEAR=1987
DGENRE=Country
TTITLE0=Twenty Years
TTITLE1=Someplace Far Away
TTITLE2=Sawmill Song
TTITLE3=Bobbie's Song
TTITLE4=Better Left Unsaid
TTITLE5=Morning Side Of Dawn
TTITLE6=The Belgian Team
TTITLE7=Black Burning Air
TTITLE8=Came Down To Ride
TTITLE9=Naomi
EXTD=YEAR: 1987
EXTT0=
EXTT1=
EXTT2=
EXTT3=
EXTT4=
EXTT5=
EXTT6=
EXTT7=
EXTT8=
EXTT9=
PLAYORDER=
